<?xml version="1.0" encoding="utf-8"?>
<!-- Generator: Adobe Illustrator 23.0.1, SVG Export Plug-In . SVG Version: 6.00 Build 0)  -->
<svg version="1.1" id="Layer_1" xmlns="http://www.w3.org/2000/svg" xmlns:xlink="http://www.w3.org/1999/xlink" x="0px" y="0px"
	 viewBox="0 0 330.41 270.61" style="enable-background:new 0 0 330.41 270.61;" xml:space="preserve">
<g>
	<path style="fill:#1A4B99;" d="M135.24,4.83c-18.14,9.36-33.27,27.9-39.8,51.65c-11.04,40.29,6.96,80.32,40.19,89.43
		c16.72,4.59,34.13,0.45,48.69-9.91l0.66-0.46c2.25-1.34,5.06-1.23,6.95,0.43c2.37,2.08,2.49,5.85,0.3,8.49
		c-0.28,0.29-0.55,0.57-0.84,0.86c-15.19,15.21-35.44,23.46-56.52,20.88c-39.68-4.83-67.28-46.17-61.64-92.31
		c4.56-37.47,29.63-66.56,60.12-73.6c0,0,4.01-0.96,4.54,0.76C138.42,2.75,138.2,3.2,135.24,4.83z"/>
	<path style="fill:#1A4B99;" d="M265.84,76.65c-8.61-18.5-26.51-34.39-49.96-41.89c-39.8-12.69-80.54,3.65-91.01,36.47
		c-5.27,16.52-1.85,34.08,7.9,49.06l0.44,0.68c1.24,2.3,1.02,5.1-0.72,6.92c-2.18,2.28-5.95,2.25-8.5-0.05
		c-0.27-0.3-0.55-0.58-0.82-0.87c-14.57-15.81-21.98-36.38-18.54-57.33c6.46-39.44,48.9-65.32,94.77-57.79
		c37.25,6.1,65.28,32.34,71.07,63.1c0,0,0.79,4.05-0.95,4.5C267.79,79.91,267.35,79.67,265.84,76.65z"/>
</g>
<g>
	<path style="fill:#1A4B99;" d="M200.4,201.12c17.76-10.05,32.17-29.16,37.78-53.13c9.49-40.68-10.04-80-43.59-87.82
		c-16.89-3.94-34.12,0.86-48.27,11.78l-0.64,0.49c-2.2,1.42-5,1.42-6.96-0.17c-2.45-1.99-2.71-5.75-0.63-8.47
		c0.27-0.3,0.53-0.59,0.81-0.89c14.6-15.78,34.52-24.8,55.68-23.03c39.83,3.3,69,43.55,65.13,89.88
		c-3.12,37.62-27.05,67.64-57.25,75.86c0,0-3.97,1.11-4.56-0.59S197.51,202.85,200.4,201.12z"/>
	<path style="fill:#1A4B99;" d="M67.14,134.36c9.31,18.16,27.81,33.35,51.54,39.94c40.26,11.15,80.34-6.74,89.54-39.94
		c4.64-16.71,0.54-34.12-9.78-48.72l-0.46-0.66c-1.33-2.25-1.22-5.06,0.45-6.94c2.09-2.36,5.86-2.47,8.49-0.28
		c0.28,0.29,0.57,0.56,0.85,0.84c15.17,15.24,23.36,35.51,20.72,56.58c-4.94,39.66-46.36,67.15-92.48,61.38
		c-37.46-4.66-66.47-29.81-73.44-60.32c0,0-0.95-4.01,0.77-4.54C65.07,131.18,65.52,131.39,67.14,134.36z"/>
</g>
<path style="fill:#1A4B99;" d="M135.83,4.54"/>
<circle style="fill:#1A4B99;" cx="165.71" cy="101.84" r="17.29"/>
<g>
	<path style="fill:#1A4B99;" d="M3.96,215.17h24.72v7.5H13.14v9.24h14.52v7.44H13.14v16.26H3.96V215.17z"/>
	<path style="fill:#1A4B99;" d="M60.54,238.51H45.66v9.6h16.62v7.5h-25.8v-40.44h24.96v7.5H45.66v8.4h14.88V238.51z"/>
	<path style="fill:#1A4B99;" d="M99.12,254.47c-1.68,0.84-5.46,1.74-10.38,1.74c-13.98,0-21.18-8.7-21.18-20.22
		c0-13.8,9.84-21.48,22.08-21.48c4.74,0,8.34,0.96,9.96,1.8l-1.86,7.26c-1.86-0.78-4.44-1.5-7.68-1.5c-7.26,0-12.9,4.38-12.9,13.38
		c0,8.1,4.8,13.2,12.96,13.2c2.76,0,5.82-0.6,7.62-1.32L99.12,254.47z"/>
	<path style="fill:#1A4B99;" d="M141.24,234.97c0,13.26-8.04,21.3-19.86,21.3c-12,0-19.02-9.06-19.02-20.58
		c0-12.12,7.74-21.18,19.68-21.18C134.46,214.51,141.24,223.81,141.24,234.97z M112.02,235.51c0,7.92,3.72,13.5,9.84,13.5
		c6.18,0,9.72-5.88,9.72-13.74c0-7.26-3.48-13.5-9.78-13.5C115.62,221.77,112.02,227.65,112.02,235.51z"/>
	<path style="fill:#1A4B99;" d="M148.14,215.71c2.82-0.48,6.78-0.84,12.36-0.84c5.64,0,9.66,1.08,12.36,3.24
		c2.58,2.04,4.32,5.4,4.32,9.36s-1.32,7.32-3.72,9.6c-3.12,2.94-7.74,4.26-13.14,4.26c-1.2,0-2.28-0.06-3.12-0.18v14.46h-9.06
		V215.71z M157.2,234.07c0.78,0.18,1.74,0.24,3.06,0.24c4.86,0,7.86-2.46,7.86-6.6c0-3.72-2.58-5.94-7.14-5.94
		c-1.86,0-3.12,0.18-3.78,0.36V234.07z"/>
	<path style="fill:#1A4B99;" d="M183.9,215.71c2.94-0.48,7.32-0.84,12.18-0.84c6,0,10.2,0.9,13.08,3.18
		c2.4,1.92,3.72,4.74,3.72,8.46c0,5.16-3.66,8.7-7.14,9.96v0.18c2.82,1.14,4.38,3.84,5.4,7.56c1.26,4.56,2.52,9.84,3.3,11.4h-9.36
		c-0.66-1.14-1.62-4.44-2.82-9.42c-1.08-5.04-2.82-6.42-6.54-6.48h-2.76v15.9h-9.06V215.71z M192.96,233.11h3.6
		c4.56,0,7.26-2.28,7.26-5.82c0-3.72-2.52-5.58-6.72-5.64c-2.22,0-3.48,0.18-4.14,0.3V233.11z"/>
	<path style="fill:#1A4B99;" d="M257.16,234.97c0,13.26-8.04,21.3-19.86,21.3c-12,0-19.02-9.06-19.02-20.58
		c0-12.12,7.74-21.18,19.68-21.18C250.38,214.51,257.16,223.81,257.16,234.97z M227.94,235.51c0,7.92,3.72,13.5,9.84,13.5
		c6.18,0,9.72-5.88,9.72-13.74c0-7.26-3.48-13.5-9.78-13.5C231.54,221.77,227.94,227.65,227.94,235.51z"/>
	<path style="fill:#1A4B99;" d="M264.06,215.71c2.4-0.48,7.26-0.84,11.82-0.84c5.58,0,9,0.54,11.94,2.28
		c2.82,1.5,4.86,4.26,4.86,7.92c0,3.6-2.1,6.96-6.66,8.64v0.12c4.62,1.26,8.04,4.74,8.04,9.96c0,3.66-1.68,6.54-4.2,8.58
		c-2.94,2.34-7.86,3.66-15.9,3.66c-4.5,0-7.86-0.3-9.9-0.6V215.71z M273.12,231.19h3c4.8,0,7.38-1.98,7.38-4.98
		c0-3.06-2.34-4.68-6.48-4.68c-1.98,0-3.12,0.12-3.9,0.24V231.19z M273.12,249.13c0.9,0.12,1.98,0.12,3.54,0.12
		c4.14,0,7.8-1.56,7.8-5.82c0-4.08-3.66-5.7-8.22-5.7h-3.12V249.13z"/>
	<path style="fill:#1A4B99;" d="M325.25,238.51h-14.88v9.6h16.62v7.5h-25.8v-40.44h24.96v7.5h-15.78v8.4h14.88V238.51z"/>
</g>
</svg>
